<mxfile host="65bd71144e">
    <diagram id="ierlRl7N4X6vcqOwsMzZ" name="Page-1">
        <mxGraphModel dx="1096" dy="779" grid="1" gridSize="10" guides="1" tooltips="1" connect="1" arrows="1" fold="1" page="1" pageScale="1" pageWidth="800" pageHeight="600" math="0" shadow="0">
            <root>
                <mxCell id="0"/>
                <mxCell id="1" parent="0"/>
                <mxCell id="2" value="Time" style="text;html=1;strokeColor=none;fillColor=none;fontSize=14;fontStyle=1;" parent="1" vertex="1">
                    <mxGeometry x="50" y="450" width="800" height="30" as="geometry"/>
                </mxCell>
                <mxCell id="3" value="" style="strokeColor=#000000;strokeWidth=2;" parent="1" edge="1">
                    <mxGeometry width="800" relative="1" as="geometry">
                        <mxPoint x="50" y="150" as="sourcePoint"/>
                        <mxPoint x="850" y="150" as="targetPoint"/>
                    </mxGeometry>
                </mxCell>
                <mxCell id="4" value="Sub-Batch 1" style="text;html=1;strokeColor=none;fillColor=none;fontSize=12;" parent="1" vertex="1">
                    <mxGeometry x="10" y="140" width="90" height="30" as="geometry"/>
                </mxCell>
                <mxCell id="5" value="" style="strokeColor=#000000;strokeWidth=2;startArrow=none;" parent="1" edge="1" source="9">
                    <mxGeometry width="800" relative="1" as="geometry">
                        <mxPoint x="50" y="300" as="sourcePoint"/>
                        <mxPoint x="850" y="300" as="targetPoint"/>
                    </mxGeometry>
                </mxCell>
                <mxCell id="6" value="Sub-Batch 2" style="text;html=1;strokeColor=none;fillColor=none;fontSize=12;" parent="1" vertex="1">
                    <mxGeometry x="10" y="290" width="90" height="30" as="geometry"/>
                </mxCell>
                <mxCell id="7" value="QKV Gen" style="rounded=1;strokeColor=#007bff;fillColor=#b3d7ff;strokeWidth=2;" parent="1" vertex="1">
                    <mxGeometry x="110" y="120" width="100" height="60" as="geometry"/>
                </mxCell>
                <mxCell id="8" value="FFNs" style="rounded=1;strokeColor=#007bff;fillColor=#b3d7ff;strokeWidth=2;" parent="1" vertex="1">
                    <mxGeometry x="300" y="120" width="100" height="60" as="geometry"/>
                </mxCell>
                <mxCell id="10" value="MHA" style="rounded=1;strokeColor=#28a745;fillColor=#d4edda;strokeWidth=2;" parent="1" vertex="1">
                    <mxGeometry x="250" y="270" width="100" height="60" as="geometry"/>
                </mxCell>
                <mxCell id="11" value="" style="endArrow=classic;strokeColor=#000000;strokeWidth=2;" parent="1" edge="1">
                    <mxGeometry relative="1" as="geometry">
                        <mxPoint x="200" y="150" as="sourcePoint"/>
                        <mxPoint x="200" y="300" as="targetPoint"/>
                    </mxGeometry>
                </mxCell>
                <mxCell id="12" value="" style="endArrow=classic;strokeColor=#000000;strokeWidth=2;" parent="1" edge="1">
                    <mxGeometry relative="1" as="geometry">
                        <mxPoint x="350" y="150" as="sourcePoint"/>
                        <mxPoint x="350" y="300" as="targetPoint"/>
                    </mxGeometry>
                </mxCell>
                <mxCell id="13" value="" style="strokeColor=#000000;strokeWidth=2;endArrow=none;" edge="1" parent="1" target="9">
                    <mxGeometry width="800" relative="1" as="geometry">
                        <mxPoint x="50" y="300" as="sourcePoint"/>
                        <mxPoint x="850" y="300" as="targetPoint"/>
                    </mxGeometry>
                </mxCell>
                <mxCell id="9" value="MHA" style="rounded=1;strokeColor=#28a745;fillColor=#d4edda;strokeWidth=2;" parent="1" vertex="1">
                    <mxGeometry x="110" y="270" width="100" height="60" as="geometry"/>
                </mxCell>
            </root>
        </mxGraphModel>
    </diagram>
</mxfile>